<svg width="20" height="20" viewBox="0 0 20 20" fill="none" xmlns="http://www.w3.org/2000/svg">
    <path fill-rule="evenodd" clip-rule="evenodd" d="M15.6569 4.34308C18.781 7.46731 18.781 12.5327 15.6569 15.6569C12.5327 18.781 7.46731 18.781 4.34308 15.6569C1.21897 12.5327 1.21897 7.46731 4.34308 4.34308C7.46731 1.21897 12.5327 1.21897 15.6569 4.34308ZM14.1884 9.54544C14.4395 9.54544 14.6429 9.74896 14.6429 9.99987C14.6429 10.2509 14.4393 10.4543 14.1884 10.4543H10.4544V14.1884C10.4544 14.4395 10.2509 14.6429 10 14.6429C9.74909 14.6429 9.5457 14.4393 9.5457 14.1884V10.4544H5.81144C5.5604 10.4544 5.35688 10.2509 5.35688 10C5.35688 9.74909 5.5604 9.54557 5.81144 9.54557H9.54557V5.81131C9.54557 5.5604 9.74909 5.35688 9.99987 5.35688C10.2509 5.35688 10.4543 5.5604 10.4543 5.81131V9.54544H14.1884Z" fill="black"/>
</svg>
